<svg version="1.1" xmlns="http://www.w3.org/2000/svg" viewBox="0 0 1039.1309356689453 473.84375" width="1039.1309356689453" height="473.84375">
  <!-- svg-source:excalidraw -->
  
  <defs>
    <style class="style-fonts">
      @font-face {
        font-family: "Virgil";
        src: url("https://excalidraw.com/Virgil.woff2");
      }
      @font-face {
        font-family: "Cascadia";
        src: url("https://excalidraw.com/Cascadia.woff2");
      }
      @font-face {
        font-family: "Assistant";
        src: url("https://excalidraw.com/Assistant-Regular.woff2");
      }
    </style>
    
  </defs>
  <rect x="0" y="0" width="1039.1309356689453" height="473.84375" fill="#ffffff"></rect><g stroke-linecap="round" transform="translate(496.2109375 218.54296875) rotate(0 59.44140625 17.78515625)"><path d="M8.89 0 C27.42 2.13, 49.08 -0.82, 109.99 0 M8.89 0 C41.67 -1.31, 72.7 -0.66, 109.99 0 M109.99 0 C115.12 -0.33, 118.53 1.92, 118.88 8.89 M109.99 0 C116.24 -1.92, 118.48 4.86, 118.88 8.89 M118.88 8.89 C120.46 11.05, 117.46 14.99, 118.88 26.68 M118.88 8.89 C118.25 11.84, 118.16 16.24, 118.88 26.68 M118.88 26.68 C117.52 30.81, 117.77 36.23, 109.99 35.57 M118.88 26.68 C120.92 32.71, 114.78 33.35, 109.99 35.57 M109.99 35.57 C74.63 35.7, 37.49 36.64, 8.89 35.57 M109.99 35.57 C81.19 36.62, 50.43 36.25, 8.89 35.57 M8.89 35.57 C4.63 35.19, -1.4 33.8, 0 26.68 M8.89 35.57 C2.13 33.28, 1.73 32.93, 0 26.68 M0 26.68 C-1.4 21.63, 0.89 15.28, 0 8.89 M0 26.68 C-0.22 22.23, 0.45 19.14, 0 8.89 M0 8.89 C-0.68 2.09, 3.56 1.37, 8.89 0 M0 8.89 C1.77 0.89, 3.32 -0.84, 8.89 0" stroke="#1e1e1e" stroke-width="2" fill="none"></path></g><g transform="translate(528.1623764038086 223.828125) rotate(0 27.489967346191406 12.5)"><text x="27.489967346191406" y="0" font-family="Virgil, Segoe UI Emoji" font-size="20px" fill="#1e1e1e" text-anchor="middle" style="white-space: pre;" direction="ltr" dominant-baseline="text-before-edge">seeds</text></g><g stroke-linecap="round" transform="translate(681.12109375 216.4375) rotate(0 59.44140625 17.78515625)"><path d="M8.89 0 C44.96 -0.12, 76.08 0.61, 109.99 0 M8.89 0 C39.6 -1, 70.91 -0.72, 109.99 0 M109.99 0 C113.94 -0.99, 119.67 3.93, 118.88 8.89 M109.99 0 C117.21 0.03, 117.46 1.15, 118.88 8.89 M118.88 8.89 C119.87 14.94, 117.5 19.74, 118.88 26.68 M118.88 8.89 C119.14 15.45, 118.65 22.08, 118.88 26.68 M118.88 26.68 C116.95 31.71, 117.57 33.98, 109.99 35.57 M118.88 26.68 C118.36 33.35, 113.83 34.6, 109.99 35.57 M109.99 35.57 C75.07 34.37, 40.87 34.07, 8.89 35.57 M109.99 35.57 C81.75 34.15, 53.7 35.74, 8.89 35.57 M8.89 35.57 C3 37, 0.29 32.77, 0 26.68 M8.89 35.57 C4.12 35.8, -1.81 33.58, 0 26.68 M0 26.68 C-1.39 23.75, 0.8 15.74, 0 8.89 M0 26.68 C-0.26 21.69, 0.03 19.15, 0 8.89 M0 8.89 C-0.93 3.69, 2.13 0.98, 8.89 0 M0 8.89 C1.87 4.19, 2.58 1.33, 8.89 0" stroke="#1e1e1e" stroke-width="2" fill="none"></path></g><g transform="translate(713.0725326538086 221.72265625) rotate(0 27.489967346191406 12.5)"><text x="27.489967346191406" y="0" font-family="Virgil, Segoe UI Emoji" font-size="20px" fill="#1e1e1e" text-anchor="middle" style="white-space: pre;" direction="ltr" dominant-baseline="text-before-edge">seeds</text></g><g stroke-linecap="round" transform="translate(872.859375 216.91796875) rotate(0 59.44140625 17.78515625)"><path d="M8.89 0 C34.61 2.65, 59.7 2.58, 109.99 0 M8.89 0 C34.12 0.53, 59.22 0.12, 109.99 0 M109.99 0 C117.59 0.04, 118.07 2.88, 118.88 8.89 M109.99 0 C113.68 -1.26, 119.63 2.55, 118.88 8.89 M118.88 8.89 C118.56 14.81, 119.07 21.01, 118.88 26.68 M118.88 8.89 C117.95 14.78, 118.32 21.97, 118.88 26.68 M118.88 26.68 C117.87 34.06, 115.39 34.12, 109.99 35.57 M118.88 26.68 C120.51 33.63, 117.69 36.25, 109.99 35.57 M109.99 35.57 C75.68 35.89, 44.64 35.19, 8.89 35.57 M109.99 35.57 C71.97 34.35, 34.29 34.49, 8.89 35.57 M8.89 35.57 C1.09 35.7, -1.95 31.06, 0 26.68 M8.89 35.57 C3.93 34.22, 0.76 34.56, 0 26.68 M0 26.68 C1.35 20.09, -1.74 14.36, 0 8.89 M0 26.68 C-0.22 20.81, -0.07 16.53, 0 8.89 M0 8.89 C-1.72 3.9, 3.02 -0.1, 8.89 0 M0 8.89 C2 2.95, 0.79 1.03, 8.89 0" stroke="#1e1e1e" stroke-width="2" fill="none"></path></g><g transform="translate(904.8108139038086 222.203125) rotate(0 27.489967346191406 12.5)"><text x="27.489967346191406" y="0" font-family="Virgil, Segoe UI Emoji" font-size="20px" fill="#1e1e1e" text-anchor="middle" style="white-space: pre;" direction="ltr" dominant-baseline="text-before-edge">seeds</text></g><g stroke-linecap="round" transform="translate(436.51953125 320.4375) rotate(0 21 17.5)"><path d="M8.75 0 C16.54 -1.32, 28.27 -0.55, 33.25 0 M8.75 0 C14.6 1.2, 22.36 -0.49, 33.25 0 M33.25 0 C37.26 1.36, 43.4 1.08, 42 8.75 M33.25 0 C37.04 -1.05, 41.47 3.77, 42 8.75 M42 8.75 C40.12 15.57, 42.3 21.02, 42 26.25 M42 8.75 C41.27 15.24, 41.64 22.14, 42 26.25 M42 26.25 C40.7 30.88, 39.39 36.15, 33.25 35 M42 26.25 C42.45 31.29, 38.32 36.87, 33.25 35 M33.25 35 C27.2 34.79, 22.38 36.24, 8.75 35 M33.25 35 C23.42 35.61, 14.59 35.72, 8.75 35 M8.75 35 C3.45 33.36, -1.22 33.84, 0 26.25 M8.75 35 C1.84 36.24, -2.19 31.5, 0 26.25 M0 26.25 C0.95 21.21, -1.65 18.06, 0 8.75 M0 26.25 C-0.36 23.08, 0.86 19.42, 0 8.75 M0 8.75 C1.3 3.32, 4.77 0.67, 8.75 0 M0 8.75 C-1.99 2.62, 1.19 -1.44, 8.75 0" stroke="#1e1e1e" stroke-width="2" fill="none"></path></g><g transform="translate(441.72955322265625 325.4375) rotate(0 15.78997802734375 12.5)"><text x="15.78997802734375" y="0" font-family="Virgil, Segoe UI Emoji" font-size="20px" fill="#1e1e1e" text-anchor="middle" style="white-space: pre;" direction="ltr" dominant-baseline="text-before-edge">soil</text></g><g stroke-linecap="round" transform="translate(607.0234375 320.53125) rotate(0 21 17.5)"><path d="M8.75 0 C12.76 -1.91, 21.06 1.31, 33.25 0 M8.75 0 C13.62 0.48, 19.54 -0.7, 33.25 0 M33.25 0 C40.83 -1.98, 42.62 3.42, 42 8.75 M33.25 0 C38.73 1.95, 43.49 3.61, 42 8.75 M42 8.75 C41.78 11.19, 40.9 16.16, 42 26.25 M42 8.75 C41.74 15.71, 41.62 21.44, 42 26.25 M42 26.25 C42.94 32.24, 38.75 36.52, 33.25 35 M42 26.25 C43.29 33.92, 39.38 37.24, 33.25 35 M33.25 35 C28.14 35.52, 19.48 33.77, 8.75 35 M33.25 35 C22.8 34.88, 13.64 35.9, 8.75 35 M8.75 35 C3.05 36.24, -0.97 30.35, 0 26.25 M8.75 35 C3.18 32.72, -2.12 31.81, 0 26.25 M0 26.25 C0.32 23.19, 0.29 19.48, 0 8.75 M0 26.25 C-0.51 19.86, 0.72 15.25, 0 8.75 M0 8.75 C-1.86 1.82, 1.96 0.53, 8.75 0 M0 8.75 C-1.75 2.12, 4.32 -0.77, 8.75 0" stroke="#1e1e1e" stroke-width="2" fill="none"></path></g><g transform="translate(612.2334594726562 325.53125) rotate(0 15.78997802734375 12.5)"><text x="15.78997802734375" y="0" font-family="Virgil, Segoe UI Emoji" font-size="20px" fill="#1e1e1e" text-anchor="middle" style="white-space: pre;" direction="ltr" dominant-baseline="text-before-edge">soil</text></g><g stroke-linecap="round" transform="translate(768.83203125 323.57421875) rotate(0 21 17.5)"><path d="M8.75 0 C14.66 1.22, 17.48 1.81, 33.25 0 M8.75 0 C13.51 0.79, 19.23 0.24, 33.25 0 M33.25 0 C37.17 -0.57, 40.91 2.72, 42 8.75 M33.25 0 C37.59 -1.38, 42.35 4.24, 42 8.75 M42 8.75 C43.36 13.52, 42.31 20.76, 42 26.25 M42 8.75 C42.46 14.83, 42.08 20.37, 42 26.25 M42 26.25 C40.95 32.84, 38.99 35.95, 33.25 35 M42 26.25 C42.61 30.19, 37.68 37.02, 33.25 35 M33.25 35 C26.54 33.56, 22.37 34.9, 8.75 35 M33.25 35 C24.5 33.79, 14.59 34.67, 8.75 35 M8.75 35 C1.72 35.77, 1.6 32.53, 0 26.25 M8.75 35 C4.41 35.47, 2.14 32.85, 0 26.25 M0 26.25 C-1.08 23.65, 1.38 17.15, 0 8.75 M0 26.25 C-0.58 21.66, 0.62 17.38, 0 8.75 M0 8.75 C0.25 2.99, 1.53 0.52, 8.75 0 M0 8.75 C-0.83 2.06, 1.83 -1.58, 8.75 0" stroke="#1e1e1e" stroke-width="2" fill="none"></path></g><g transform="translate(774.0420532226562 328.57421875) rotate(0 15.78997802734375 12.5)"><text x="15.78997802734375" y="0" font-family="Virgil, Segoe UI Emoji" font-size="20px" fill="#1e1e1e" text-anchor="middle" style="white-space: pre;" direction="ltr" dominant-baseline="text-before-edge">soil</text></g><g stroke-linecap="round" transform="translate(863.2109375 325.04296875) rotate(0 21 17.5)"><path d="M8.75 0 C18.57 1.33, 25.58 -1.88, 33.25 0 M8.75 0 C14.76 -0.58, 22.22 0.6, 33.25 0 M33.25 0 C39.48 -0.69, 41.33 4.54, 42 8.75 M33.25 0 C38 0.48, 43.08 3.09, 42 8.75 M42 8.75 C43.53 13.93, 43.83 17.75, 42 26.25 M42 8.75 C42.22 13.94, 41.46 21.34, 42 26.25 M42 26.25 C41.06 33.16, 37.18 34.49, 33.25 35 M42 26.25 C40.61 33.85, 39.24 36.42, 33.25 35 M33.25 35 C25.1 33.18, 20.68 33.83, 8.75 35 M33.25 35 C25.61 35.26, 17.59 35.39, 8.75 35 M8.75 35 C1.19 34.74, -1.5 30.83, 0 26.25 M8.75 35 C4.41 36.78, -2.14 30.82, 0 26.25 M0 26.25 C-0.65 22.9, -0.63 17.64, 0 8.75 M0 26.25 C-0.19 20.61, -0.29 15.02, 0 8.75 M0 8.75 C-1.57 3.75, 2.38 0.09, 8.75 0 M0 8.75 C-0.41 1.46, 4.98 -0.78, 8.75 0" stroke="#1e1e1e" stroke-width="2" fill="none"></path></g><g transform="translate(868.4209594726562 330.04296875) rotate(0 15.78997802734375 12.5)"><text x="15.78997802734375" y="0" font-family="Virgil, Segoe UI Emoji" font-size="20px" fill="#1e1e1e" text-anchor="middle" style="white-space: pre;" direction="ltr" dominant-baseline="text-before-edge">soil</text></g><g stroke-linecap="round" transform="translate(963.2109375 322.04296875) rotate(0 21 17.5)"><path d="M8.75 0 C13.57 0.46, 21.94 0.55, 33.25 0 M8.75 0 C14.78 0.01, 22.23 -0.12, 33.25 0 M33.25 0 C38.75 1.52, 43.13 4.51, 42 8.75 M33.25 0 C39.38 2.24, 40.79 3.78, 42 8.75 M42 8.75 C40.64 12.85, 43.62 18.27, 42 26.25 M42 8.75 C41.31 15.61, 41.89 21.68, 42 26.25 M42 26.25 C41.03 30.35, 39.32 33.01, 33.25 35 M42 26.25 C39.88 31.81, 37.7 35.89, 33.25 35 M33.25 35 C24.35 37.02, 15.31 33.43, 8.75 35 M33.25 35 C26.87 35.62, 18.25 34.3, 8.75 35 M8.75 35 C1.96 35.53, -1.52 31.39, 0 26.25 M8.75 35 C4.32 34.23, 0.29 32.17, 0 26.25 M0 26.25 C-0.7 21.39, -1.25 16.81, 0 8.75 M0 26.25 C-0.11 19.72, 0.83 13.99, 0 8.75 M0 8.75 C-0.08 3.72, 4 -1.37, 8.75 0 M0 8.75 C-0.79 3.91, 4.56 0.34, 8.75 0" stroke="#1e1e1e" stroke-width="2" fill="none"></path></g><g transform="translate(968.4209594726562 327.04296875) rotate(0 15.78997802734375 12.5)"><text x="15.78997802734375" y="0" font-family="Virgil, Segoe UI Emoji" font-size="20px" fill="#1e1e1e" text-anchor="middle" style="white-space: pre;" direction="ltr" dominant-baseline="text-before-edge">soil</text></g><g stroke-linecap="round"><g transform="translate(497.8125 253.4921875) rotate(0 -14.437670989819367 32.97265625)"><path d="M1.14 0.23 C-3.79 11.06, -23.96 54.53, -28.9 65.57 M0.28 -0.7 C-4.88 10.26, -24.96 56.06, -29.86 66.91" stroke="#1e1e1e" stroke-width="2" fill="none"></path></g><g transform="translate(497.8125 253.4921875) rotate(0 -14.437670989819367 32.97265625)"><path d="M-27.79 36.98 C-28.01 47.66, -29.76 58.96, -29.86 66.91 M-27.79 36.98 C-29.44 47.66, -28.39 57.66, -29.86 66.91" stroke="#1e1e1e" stroke-width="2" fill="none"></path></g><g transform="translate(497.8125 253.4921875) rotate(0 -14.437670989819367 32.97265625)"><path d="M-9.04 45.32 C-16 53.19, -24.45 61.52, -29.86 66.91 M-9.04 45.32 C-17.14 52.95, -22.56 60.08, -29.86 66.91" stroke="#1e1e1e" stroke-width="2" fill="none"></path></g></g><mask></mask><g stroke-linecap="round"><g transform="translate(549.8234529151409 257.11328125) rotate(0 12.069528323818133 84.201171875)"><path d="M0.92 -0.23 C4.83 27.87, 20.18 140.21, 23.96 168.48 M-0.05 -1.4 C3.63 26.93, 19.16 141.9, 22.91 170.06" stroke="#1e1e1e" stroke-width="2" fill="none"></path></g><g transform="translate(549.8234529151409 257.11328125) rotate(0 12.069528323818133 84.201171875)"><path d="M8.99 143.49 C13.38 152.25, 18.71 160.76, 22.91 170.06 M8.99 143.49 C14.98 153.45, 19.17 163.45, 22.91 170.06" stroke="#1e1e1e" stroke-width="2" fill="none"></path></g><g transform="translate(549.8234529151409 257.11328125) rotate(0 12.069528323818133 84.201171875)"><path d="M29.33 140.76 C26.69 150.62, 25 160.07, 22.91 170.06 M29.33 140.76 C27.48 151.79, 23.85 162.85, 22.91 170.06" stroke="#1e1e1e" stroke-width="2" fill="none"></path></g></g><mask></mask><g stroke-linecap="round"><g transform="translate(607.7378393293868 255.11328125) rotate(0 10.783057603629914 31.6171875)"><path d="M0.35 1.13 C4.05 11.57, 18.66 52.11, 22.01 62.42 M-0.92 0.68 C2.67 11.27, 17.35 52.95, 21.29 63.53" stroke="#1e1e1e" stroke-width="2" fill="none"></path></g><g transform="translate(607.7378393293868 255.11328125) rotate(0 10.783057603629914 31.6171875)"><path d="M2.07 40.49 C9.37 47.72, 11.59 51.64, 21.29 63.53 M2.07 40.49 C8.08 46.71, 12.46 54.43, 21.29 63.53" stroke="#1e1e1e" stroke-width="2" fill="none"></path></g><g transform="translate(607.7378393293868 255.11328125) rotate(0 10.783057603629914 31.6171875)"><path d="M21.38 33.53 C23.18 42.79, 19.92 48.69, 21.29 63.53 M21.38 33.53 C22.09 41.53, 21.1 51.19, 21.29 63.53" stroke="#1e1e1e" stroke-width="2" fill="none"></path></g></g><mask></mask><g stroke-linecap="round"><g transform="translate(494.9609375 244.37109375) rotate(0 -67.94642386821806 87.60546875)"><path d="M0.87 -0.72 C-17.34 11.3, -85.83 41.57, -108.57 71.09 C-131.31 100.61, -131.14 158.86, -135.57 176.4 M-0.13 1.51 C-18.48 13.75, -86.38 43.2, -109.05 72.06 C-131.72 100.92, -131.92 157.63, -136.16 174.68" stroke="#1e1e1e" stroke-width="2" fill="none"></path></g><g transform="translate(494.9609375 244.37109375) rotate(0 -67.94642386821806 87.60546875)"><path d="M-142.36 145.32 C-141.61 157.25, -139.98 166.8, -136.16 174.68 M-142.36 145.32 C-139.96 156.95, -138.21 169.14, -136.16 174.68" stroke="#1e1e1e" stroke-width="2" fill="none"></path></g><g transform="translate(494.9609375 244.37109375) rotate(0 -67.94642386821806 87.60546875)"><path d="M-122.04 148.21 C-128.53 159.25, -134.15 167.77, -136.16 174.68 M-122.04 148.21 C-127.77 158.87, -134.12 169.91, -136.16 174.68" stroke="#1e1e1e" stroke-width="2" fill="none"></path></g></g><mask></mask><g transform="translate(527.2109375 187.54296875) rotate(0 49.91997528076172 12.5)"><text x="0" y="0" font-family="Virgil, Segoe UI Emoji" font-size="20px" fill="#1e1e1e" text-anchor="start" style="white-space: pre;" direction="ltr" dominant-baseline="text-before-edge">(100,1000)</text></g><g transform="translate(522.2109375 159.54296875) rotate(0 57.909942626953125 12.5)"><text x="0" y="0" font-family="Virgil, Segoe UI Emoji" font-size="20px" fill="#1e1e1e" text-anchor="start" style="white-space: pre;" direction="ltr" dominant-baseline="text-before-edge">(first, last)</text></g><g transform="translate(602.2109375 365.54296875) rotate(0 54.85997009277344 12.5)"><text x="0" y="0" font-family="Virgil, Segoe UI Emoji" font-size="20px" fill="#1e1e1e" text-anchor="start" style="white-space: pre;" direction="ltr" dominant-baseline="text-before-edge">(800,1000)</text></g><g transform="translate(421.21875 366.453125) rotate(0 50.60997009277344 12.5)"><text x="0" y="0" font-family="Virgil, Segoe UI Emoji" font-size="20px" fill="#1e1e1e" text-anchor="start" style="white-space: pre;" direction="ltr" dominant-baseline="text-before-edge">(300,500)</text></g><g transform="translate(552.3203125 438.84375) rotate(0 51.44996643066406 12.5)"><text x="0" y="0" font-family="Virgil, Segoe UI Emoji" font-size="20px" fill="#1e1e1e" text-anchor="start" style="white-space: pre;" direction="ltr" dominant-baseline="text-before-edge">(500,800)</text></g><g transform="translate(305.08984375 431.609375) rotate(0 47.139976501464844 12.5)"><text x="0" y="0" font-family="Virgil, Segoe UI Emoji" font-size="20px" fill="#1e1e1e" text-anchor="start" style="white-space: pre;" direction="ltr" dominant-baseline="text-before-edge">(100,300)</text></g><g transform="translate(68.45703125 274.78515625) rotate(0 136.4298858642578 12.5)"><text x="0" y="0" font-family="Virgil, Segoe UI Emoji" font-size="20px" fill="#1e1e1e" text-anchor="start" style="white-space: pre;" direction="ltr" dominant-baseline="text-before-edge">[destination, source, range]</text></g><g transform="translate(132.05078125 313.64453125) rotate(0 118.18992614746094 12.5)"><text x="0" y="0" font-family="Virgil, Segoe UI Emoji" font-size="20px" fill="#1e1e1e" text-anchor="start" style="white-space: pre;" direction="ltr" dominant-baseline="text-before-edge">(line[1], line[1] + line[3])</text></g><g transform="translate(510.4453125 109.265625) rotate(0 142.70986938476562 12.5)"><text x="0" y="0" font-family="Virgil, Segoe UI Emoji" font-size="20px" fill="#1e1e1e" text-anchor="start" style="white-space: pre;" direction="ltr" dominant-baseline="text-before-edge">(seeds[1], seeds[1]+seeds[2]</text></g><g transform="translate(539.2109375 68.54296875) rotate(0 88.85994720458984 12.5)"><text x="0" y="0" font-family="Virgil, Segoe UI Emoji" font-size="20px" fill="#1e1e1e" text-anchor="start" style="white-space: pre;" direction="ltr" dominant-baseline="text-before-edge">[seeds, 100, 900]</text></g><g transform="translate(495.1796875 188.640625) rotate(0 4.909996032714844 12.5)"><text x="0" y="0" font-family="Virgil, Segoe UI Emoji" font-size="20px" fill="#1e1e1e" text-anchor="start" style="white-space: pre;" direction="ltr" dominant-baseline="text-before-edge">[</text></g><g transform="translate(654.87890625 184.3125) rotate(0 2.5699996948242188 12.5)"><text x="0" y="0" font-family="Virgil, Segoe UI Emoji" font-size="20px" fill="#1e1e1e" text-anchor="start" style="white-space: pre;" direction="ltr" dominant-baseline="text-before-edge">,</text></g><g transform="translate(864.98046875 178.06640625) rotate(0 70.30996704101562 12.5)"><text x="0" y="0" font-family="Virgil, Segoe UI Emoji" font-size="20px" fill="#1e1e1e" text-anchor="start" style="white-space: pre;" direction="ltr" dominant-baseline="text-before-edge">(2000, 3000)</text></g><g transform="translate(851.6484375 187.78125) rotate(0 2.5699996948242188 12.5)"><text x="0" y="0" font-family="Virgil, Segoe UI Emoji" font-size="20px" fill="#1e1e1e" text-anchor="start" style="white-space: pre;" direction="ltr" dominant-baseline="text-before-edge">,</text></g><g transform="translate(1019.2109375 184.54296875) rotate(0 4.959999084472656 12.5)"><text x="0" y="0" font-family="Virgil, Segoe UI Emoji" font-size="20px" fill="#1e1e1e" text-anchor="start" style="white-space: pre;" direction="ltr" dominant-baseline="text-before-edge">}</text></g><g transform="translate(691.12890625 182.546875) rotate(0 56.559967041015625 12.5)"><text x="0" y="0" font-family="Virgil, Segoe UI Emoji" font-size="20px" fill="#1e1e1e" text-anchor="start" style="white-space: pre;" direction="ltr" dominant-baseline="text-before-edge">(1200,1400)</text></g><g transform="translate(251.77734375 184.53125) rotate(0 110.26988983154297 12.5)"><text x="0" y="0" font-family="Virgil, Segoe UI Emoji" font-size="20px" fill="#1e1e1e" text-anchor="start" style="white-space: pre;" direction="ltr" dominant-baseline="text-before-edge">for seeds in seed_list</text></g><g transform="translate(10 365.6640625) rotate(0 89.03990936279297 12.5)"><text x="0" y="0" font-family="Virgil, Segoe UI Emoji" font-size="20px" fill="#1e1e1e" text-anchor="start" style="white-space: pre;" direction="ltr" dominant-baseline="text-before-edge">for soil in soil list</text></g><g transform="translate(241.25 10) rotate(0 360.7796936035156 12.5)"><text x="0" y="0" font-family="Virgil, Segoe UI Emoji" font-size="20px" fill="#1e1e1e" text-anchor="start" style="white-space: pre;" direction="ltr" dominant-baseline="text-before-edge">only need to run the first seed of each group that makes it to the end</text></g><g transform="translate(38.015625 407.17578125) rotate(0 94.95991516113281 25)"><text x="0" y="0" font-family="Virgil, Segoe UI Emoji" font-size="20px" fill="#1e1e1e" text-anchor="start" style="white-space: pre;" direction="ltr" dominant-baseline="text-before-edge">break seed list up </text><text x="0" y="25" font-family="Virgil, Segoe UI Emoji" font-size="20px" fill="#1e1e1e" text-anchor="start" style="white-space: pre;" direction="ltr" dominant-baseline="text-before-edge">into new groups</text></g><g transform="translate(138.10546875 128.27734375) rotate(0 86.99990844726562 12.5)"><text x="0" y="0" font-family="Virgil, Segoe UI Emoji" font-size="20px" fill="#1e1e1e" text-anchor="start" style="white-space: pre;" direction="ltr" dominant-baseline="text-before-edge">sorted( the lists)</text></g></svg>